<svg width="194" height="46" viewBox="0 0 194 46" class="logo" fill="none" xmlns="http://www.w3.org/2000/svg">
                    <g class="logo__icon">
                        <path class="logo__plane" fill-rule="evenodd" clip-rule="evenodd" d="M37.1534 17.1163L8.70065 17.0001C6.48658 16.9922 6.42609 17.4432 8.56778 18.0024L11.698 18.8206C13.8397 19.3798 17.3933 19.6467 19.5945 19.4153L35.1277 17.772L19.6163 21.415C17.4608 21.9211 15.3359 24.098 14.8947 26.2522L13.1328 34.8418C12.6905 36.996 13.7544 37.6488 15.4966 36.2921L37.8852 18.8482C39.3011 17.7444 39.3437 17.0789 38.1529 17.1389C37.8951 17.1251 37.5619 17.1173 37.1534 17.1163Z" fill="black"></path>
                        <path fill-rule="evenodd" clip-rule="evenodd" d="M22.5 3.48699C11.9742 3.48699 3.41101 12.2409 3.41101 23.001C3.41101 33.7612 11.9742 42.516 22.5 42.516C33.0267 42.516 41.589 33.7612 41.589 23.001C41.589 12.2409 33.0267 3.48699 22.5 3.48699M22.5 46C10.0939 46 0 35.6833 0 23.001C0 10.3177 10.0939 0 22.5 0C34.9071 0 45 10.3177 45 23.001C45 35.6833 34.9071 46 22.5 46" fill="black"></path>
                    </g>
                    <g class="logo__text">
                        <path d="M64.4119 8H69.3239C69.3054 4.28835 66.4432 1.83239 61.8636 1.83239C57.3672 1.83239 54.1911 4.25142 54.2188 7.85227C54.2095 10.8068 56.2592 12.4503 59.6108 13.1705L61.4943 13.5767C63.5994 14.0384 64.3196 14.5646 64.3381 15.4233C64.3196 16.3558 63.4702 17.0114 61.8267 17.0114C59.8601 17.0114 58.6967 16.0881 58.6136 14.3523H53.7386C53.7571 19.098 56.9702 21.2216 61.9006 21.2216C66.6925 21.2216 69.5639 19.1534 69.5824 15.4233C69.5639 12.5426 67.8466 10.5206 63.6733 9.625L62.1222 9.29261C60.331 8.91406 59.5277 8.38778 59.5739 7.48295C59.5831 6.65199 60.2756 6.04261 61.8636 6.04261C63.5256 6.04261 64.3104 6.77202 64.4119 8ZM70.2753 6.22727H75.9628V21H81.0224V6.22727H86.7099V2.09091H70.2753V6.22727ZM87.8991 21H93.0326V14.7585H94.8053L98.1292 21H103.706L99.865 13.946C101.878 12.9766 103.078 11.1392 103.078 8.51704C103.078 4.49148 100.262 2.09091 96.061 2.09091H87.8991V21ZM93.0326 10.7699V6.19034H94.8422C96.6427 6.19034 97.7229 6.89205 97.7229 8.51704C97.7229 10.1328 96.6427 10.7699 94.8422 10.7699H93.0326ZM109.435 21L110.525 17.3807H116.766L117.856 21H123.396L117.154 2.09091H110.137L103.896 21H109.435ZM111.688 13.5398L113.572 7.2983H113.719L115.603 13.5398H111.688ZM124.474 21H129.607V13.6136H136.957V9.47727H129.607V6.22727H137.769V2.09091H124.474V21ZM138.915 21H152.506V16.8636H144.048V13.6136H151.841V9.47727H144.048V6.22727H152.542V2.09091H138.915V21ZM71.8722 30.1818C71.4659 25.4915 68.0312 22.8324 63.267 22.8324C58.1705 22.8324 54.1449 26.2301 54.1449 32.5455C54.1449 38.8331 58.0597 42.2585 63.267 42.2585C68.8068 42.2585 71.6136 38.4176 71.8722 35.2045L66.6648 35.1676C66.4062 36.7834 65.2614 37.7898 63.3778 37.7898C60.8757 37.7898 59.4261 36.017 59.4261 32.5455C59.4261 29.2585 60.8295 27.3011 63.4148 27.3011C65.3906 27.3011 66.517 28.4645 66.6648 30.1818H71.8722ZM73.4583 42H78.5918V35.7585H80.3646L83.6884 42H89.2651L85.4242 34.946C87.437 33.9766 88.6373 32.1392 88.6373 29.517C88.6373 25.4915 85.8212 23.0909 81.6202 23.0909H73.4583V42ZM78.5918 31.7699V27.1903H80.4015C82.2019 27.1903 83.2822 27.892 83.2822 29.517C83.2822 31.1328 82.2019 31.7699 80.4015 31.7699H78.5918ZM90.0826 42H103.674V37.8636H95.2162V34.6136H103.009V30.4773H95.2162V27.2273H103.71V23.0909H90.0826V42ZM110.426 42L111.515 38.3807H117.757L118.846 42H124.386L118.144 23.0909H111.127L104.886 42H110.426ZM112.678 34.5398L114.562 28.2983H114.71L116.593 34.5398H112.678ZM122.535 27.2273H128.222V42H133.282V27.2273H138.97V23.0909H122.535V27.2273ZM145.292 23.0909H140.159V42H145.292V23.0909ZM152.153 23.0909H146.354L152.596 42H159.613L165.854 23.0909H160.056L156.178 36.4233H156.031L152.153 23.0909ZM166.933 42H180.524V37.8636H172.066V34.6136H179.859V30.4773H172.066V27.2273H180.561V23.0909H166.933V42Z" fill="black"></path>

                    </g>
                </svg>